<?xml version="1.0" standalone="no"?>
<!DOCTYPE svg PUBLIC "-//W3C//DTD SVG 20010904//EN"
 "http://www.w3.org/TR/2001/REC-SVG-20010904/DTD/svg10.dtd">
<svg version="1.0" xmlns="http://www.w3.org/2000/svg"
 width="260.000000pt" height="260.000000pt" viewBox="0 0 260.000000 260.000000"
 preserveAspectRatio="xMidYMid meet">
<metadata>
Created by potrace 1.11, written by Peter Selinger 2001-2013
</metadata>
<g transform="translate(0.000000,260.000000) scale(0.100000,-0.100000)"
fill="#000000" stroke="none">
<path d="M0 1300 l0 -1300 1300 0 1300 0 0 1300 0 1300 -1300 0 -1300 0 0
-1300z m1551 527 c109 -29 225 -79 317 -139 61 -39 76 -58 48 -58 -7 0 -50
-18 -94 -40 -251 -126 -340 -409 -185 -590 105 -122 306 -135 428 -28 62 54
97 125 103 209 5 75 -7 124 -46 184 -50 77 -25 155 50 155 36 0 68 -31 102
-99 81 -160 72 -335 -25 -480 -50 -75 -104 -120 -195 -163 -66 -32 -74 -33
-190 -33 -119 0 -121 0 -198 38 -244 121 -336 403 -208 641 15 28 56 79 91
114 71 71 73 64 -19 111 -160 82 -330 73 -498 -25 l-42 -25 54 -50 c105 -96
156 -210 156 -348 0 -262 -198 -461 -460 -461 -137 0 -245 46 -338 144 -133
141 -164 337 -80 519 50 108 105 141 162 96 36 -28 34 -64 -11 -150 -34 -64
-38 -78 -37 -148 1 -125 58 -217 169 -272 60 -29 70 -31 147 -27 94 5 128 19
195 81 74 68 88 105 88 227 0 93 -3 112 -27 162 -49 105 -156 198 -280 243
l-59 22 36 28 c106 80 306 161 460 185 100 15 278 5 386 -23z"/>
</g>
</svg>
